<svg t="1710316373059" class="icon" viewBox="0 0 1027 1024" version="1.1" xmlns="http://www.w3.org/2000/svg" p-id="1621" width="200" height="200"><path d="M333.71428531 244.57142844c-13.71428531-13.71428531-34.28571469-13.71428531-48 0L38.85714313 484.57142844c-13.71428531 13.71428531-13.71428531 34.28571469 0 48l239.99999998 240c13.71428531 13.71428531 34.28571469 13.71428531 48.00000002 0 13.71428531-13.71428531 13.71428531-34.28571469 0-48L114.28571469 512l219.42857062-219.42857156c6.85714313-13.71428531 6.85714313-34.28571469 0-48z m246.85714313 0c-13.71428531 0-34.28571469 6.85714313-41.14285688 27.42857156l-123.42857156 466.28571469c-6.85714313 20.57142844 6.85714313 34.28571469 27.42857156 41.14285687s34.28571469-6.85714313 41.14285688-27.42857156l123.42857156-466.28571469c6.85714313-13.71428531-6.85714313-34.28571469-27.42857156-41.14285687z m404.57142843 240l-240-240c-13.71428531-13.71428531-34.28571469-13.71428531-48 0-13.71428531 13.71428531-13.71428531 34.28571469 0 48L909.71428531 512l-219.42857062 219.42857156c-13.71428531 13.71428531-13.71428531 34.28571469 0 48 13.71428531 13.71428531 34.28571469 13.71428531 48 0l240-240c13.71428531-13.71428531 13.71428531-41.14285687 6.85714218-54.85714312z" fill="#2c2c2c" p-id="1622"></path></svg>