<svg t="1710316351663" class="icon" viewBox="0 0 1024 1024" version="1.1" xmlns="http://www.w3.org/2000/svg" p-id="1317" width="200" height="200"><path d="M569.47749925 23.42120107l336.66280107 194.86425695a107.46738915 107.46738915 0 0 1 53.59388445 93.02034204V701.00324504a107.46738915 107.46738915 0 0 1-53.59388445 93.02034205L569.47749925 988.85677512a106.93921755 106.93921755 0 0 1-107.18776888 0l-336.66280107-194.80211912a107.46738915 107.46738915 0 0 1-53.59388445-93.05141096V311.30580006c0-38.33904545 20.41227947-73.78868148 53.59388445-93.02034204L462.28973037 23.45226999a106.93921755 106.93921755 0 0 1 107.18776888 0z m-74.0061639 57.60177493L158.74639645 275.82509512c-12.64504983 7.36333369-20.41227947 20.87831325-20.41227947 35.48070494V701.00324504c0 14.6023917 7.76722963 28.14844018 20.41227947 35.44963603l336.69386998 194.83318803c12.61398092 7.30119585 28.21057802 7.30119585 40.82455894 0l336.69386998-194.80211911c12.64504983-7.36333369 20.41227947-20.87831325 20.41227947-35.48070495V311.30580006c0-14.6023917-7.76722963-28.14844018-20.41227947-35.44963602L536.29589428 81.022976a40.7624211 40.7624211 0 0 0-40.82455893 0z" fill="#2c2c2c" p-id="1318"></path><path d="M681.9469843 371.02026145a33.11946715 33.11946715 0 0 1 45.2984832 12.11687823A33.27481173 33.27481173 0 0 1 715.15965819 428.52882964l-166.12550731 96.40685415v195.54777316a33.2126739 33.2126739 0 1 1-66.30107213 0v-195.17494613l-166.12550732-96.43792308a33.27481173 33.27481173 0 0 1 8.07791882-60.8950803c8.48181475-2.26803105 17.52287005-1.05634323 25.165824 3.3554432l165.7526803 96.22044065 166.34298975-96.56219875z" fill="#2c2c2c" p-id="1319"></path></svg>